Coordinates
version=1
nRows=13
nColumns=63
inDegrees=yes

Units are S.I. units (second, meters, Newtons, ...)
If the header above contains a line with 'inDegrees', this indicates whether rotational values are in degrees (yes) or radians (no).

endheader
time	pelvis_tilt	pelvis_list	pelvis_rotation	pelvis_tx	pelvis_ty	pelvis_tz	hip_flexion_r	hip_adduction_r	hip_rotation_r	knee_angle_r	knee_angle_r_beta	ankle_angle_r	subtalar_angle_r	mtp_angle_r	hip_flexion_l	hip_adduction_l	hip_rotation_l	knee_angle_l	knee_angle_l_beta	ankle_angle_l	subtalar_angle_l	mtp_angle_l	L5_S1_Flex_Ext	L5_S1_Lat_Bending	L5_S1_axial_rotation	L4_L5_Flex_Ext	L4_L5_Lat_Bending	L4_L5_axial_rotation	L3_L4_Flex_Ext	L3_L4_Lat_Bending	L3_L4_axial_rotation	L2_L3_Flex_Ext	L2_L3_Lat_Bending	L2_L3_axial_rotation	L1_L2_Flex_Ext	L1_L2_Lat_Bending	L1_L2_axial_rotation	L1_T12_Flex_Ext	L1_T12_Lat_Bending	L1_T12_axial_rotation	Abs_r3	Abs_r2	Abs_r1	Abs_t1	Abs_t2	neck_flexion	neck_bending	neck_rotation	arm_flex_r	arm_add_r	arm_rot_r	elbow_flex_r	pro_sup_r	wrist_flex_r	wrist_dev_r	arm_flex_l	arm_add_l	arm_rot_l	elbow_flex_l	pro_sup_l	wrist_flex_l	wrist_dev_l
1.321429	2.469914	-4.329145	99.678420	0.212650	0.963102	0.237042	8.713314	2.399415	-17.867415	10.186798	0.177793	28.615759	13.014142	0.000000	8.611702	-1.290527	7.830712	5.917046	0.103272	22.288556	-1.352147	0.000000	0.317933	-0.008379	-0.771025	0.590433	-0.011144	-0.819215	0.522332	-0.020372	-0.819215	0.363365	-0.020372	-0.674647	0.295232	-0.017086	-0.626458	0.181667	-0.012979	-0.578269	2.270961	-0.094783	-4.288212	0.000000	0.000000	24.273195	-3.966212	-1.707480	6.314769	-25.387041	65.733499	33.498587	69.143680	-8.754103	-10.436393	-4.959886	-17.571510	4.030646	35.299975	85.791809	-11.173620	-5.707975
1.339286	2.550366	-4.261816	99.777037	0.212474	0.963180	0.237290	8.709831	2.448075	-18.086497	10.283572	0.179482	28.608928	13.175412	0.000000	8.469566	-1.374438	7.961059	5.745579	0.100279	22.063927	-1.427573	0.000000	0.311834	-0.000170	-0.815748	0.579107	-0.000226	-0.866732	0.512313	-0.000414	-0.866732	0.356395	-0.000414	-0.713780	0.289569	-0.000347	-0.662795	0.178182	-0.000264	-0.611811	2.227401	-0.001924	-4.536946	0.000000	0.000000	23.960281	-4.025164	-1.812956	6.590178	-25.436952	66.152881	33.590687	67.697958	-8.373558	-10.219170	-4.998521	-17.519204	3.829092	35.307596	85.901397	-11.070082	-6.145585
1.357143	2.625050	-4.235928	99.854174	0.212255	0.963137	0.237666	8.791300	2.461948	-18.363223	10.443052	0.182266	28.650177	13.456941	0.000000	8.384502	-1.429596	8.258644	5.589276	0.097551	21.812680	-1.760394	0.000000	0.308559	0.008643	-0.846759	0.573024	0.011495	-0.899681	0.506931	0.021014	-0.899681	0.352652	0.021014	-0.740914	0.286528	0.017625	-0.687991	0.176310	0.013388	-0.635069	2.204003	0.097770	-4.709417	0.000000	0.000000	23.709441	-4.090971	-1.876352	6.733492	-25.516545	66.189539	33.712970	66.469023	-7.995712	-10.058852	-5.027513	-17.432540	3.576365	35.363373	86.010619	-10.963475	-6.334692
1.375000	2.690369	-4.244795	99.884923	0.212082	0.963004	0.238175	8.936993	2.463821	-18.544690	10.631336	0.185552	28.689924	13.679409	0.000000	8.356831	-1.471934	8.507904	5.461072	0.095314	21.602343	-2.073644	0.000000	0.306692	0.016962	-0.859807	0.569558	0.022559	-0.913545	0.503864	0.041240	-0.913545	0.350518	0.041240	-0.752331	0.284794	0.034588	-0.698593	0.175244	0.026274	-0.644855	2.190671	0.191873	-4.781987	0.000000	0.000000	23.523616	-4.170638	-1.934656	6.836729	-25.623888	66.245526	33.851162	64.911757	-7.616646	-10.062044	-5.017515	-17.341484	3.392446	35.418383	85.903329	-10.873526	-6.350948
1.392857	2.744223	-4.297463	99.906697	0.211899	0.962770	0.238794	9.154021	2.434099	-18.753580	10.864544	0.189622	28.746895	13.929688	0.000000	8.407383	-1.492772	8.692612	5.373752	0.093790	21.462487	-2.291441	0.000000	0.308183	0.024123	-0.862830	0.572327	0.032084	-0.916757	0.506314	0.058653	-0.916757	0.352223	0.058653	-0.754976	0.286179	0.049192	-0.701049	0.176096	0.037367	-0.647122	2.201322	0.272885	-4.798801	0.000000	0.000000	23.401288	-4.262706	-1.999760	6.867329	-25.743445	66.161645	33.986358	63.436987	-7.237682	-10.261740	-5.000611	-17.228516	3.155498	35.497863	85.722142	-10.774912	-6.120862
1.410714	2.786730	-4.381747	99.912396	0.211735	0.962461	0.239483	9.414101	2.385515	-18.944833	11.118972	0.194063	28.798007	14.148237	0.000000	8.511052	-1.494484	8.914471	5.307364	0.092631	21.353147	-2.567120	0.000000	0.311518	0.030037	-0.857406	0.578521	0.039949	-0.910994	0.511793	0.073031	-0.910994	0.356034	0.073031	-0.750230	0.289276	0.061251	-0.696642	0.178002	0.046527	-0.643054	2.225144	0.339781	-4.768634	0.000000	0.000000	23.350588	-4.356308	-2.064327	6.856541	-25.878424	66.019470	34.140979	62.142485	-6.903708	-10.540058	-4.996088	-17.072733	2.760152	35.609044	85.501099	-10.610270	-5.634862
1.428571	2.815536	-4.489998	99.913133	0.211578	0.962102	0.240212	9.699584	2.313765	-19.168123	11.386485	0.198732	28.842611	14.378347	0.000000	8.653820	-1.475644	9.173871	5.250528	0.091639	21.265235	-2.884144	0.000000	0.316564	0.034317	-0.846067	0.587890	0.045641	-0.898946	0.520083	0.083438	-0.898946	0.361801	0.083438	-0.740309	0.293961	0.069979	-0.687430	0.180884	0.053157	-0.634550	2.261183	0.388197	-4.705571	0.000000	0.000000	23.362320	-4.450988	-2.142398	6.820336	-26.015749	65.845526	34.290943	61.172606	-6.602478	-10.851789	-4.995897	-16.894816	2.266591	35.723645	85.208308	-10.337459	-4.957882
1.446429	2.831705	-4.598406	99.887263	0.211453	0.961733	0.240958	9.972639	2.236877	-19.344837	11.637912	0.203120	28.856092	14.548120	0.000000	8.804332	-1.448160	9.397571	5.200296	0.090762	21.198202	-3.176964	0.000000	0.320112	0.037720	-0.827800	0.594481	0.050167	-0.879537	0.525913	0.091712	-0.879537	0.365856	0.091712	-0.724325	0.297256	0.076918	-0.672587	0.182912	0.058428	-0.620850	2.286531	0.426693	-4.603974	0.000000	0.000000	23.440521	-4.536064	-2.206531	6.790250	-26.161310	65.723452	34.461766	60.489133	-6.415953	-11.106620	-4.997267	-16.717032	1.775733	35.845894	84.747248	-10.028878	-4.112998
1.464286	2.839689	-4.711026	99.889990	0.211286	0.961354	0.241698	10.227709	2.155423	-19.519095	11.860066	0.206997	28.846454	14.650487	0.000000	8.978995	-1.409912	9.584702	5.174432	0.090311	21.159723	-3.377357	0.000000	0.324595	0.040335	-0.818550	0.602805	0.053645	-0.869710	0.533277	0.098069	-0.869710	0.370979	0.098069	-0.716231	0.301419	0.082250	-0.665072	0.185473	0.062478	-0.613913	2.318548	0.456272	-4.552531	0.000000	0.000000	23.567477	-4.596672	-2.232748	6.816482	-26.298814	65.768824	34.600607	60.250225	-6.348855	-11.361934	-5.020500	-16.559991	1.320953	35.934654	84.299356	-9.691875	-3.310399
1.482143	2.839794	-4.816970	99.905915	0.211106	0.961001	0.242395	10.450319	2.075190	-19.685051	12.046300	0.210248	28.816106	14.709185	0.000000	9.162808	-1.368179	9.665229	5.180484	0.090417	21.152243	-3.424283	0.000000	0.329517	0.042124	-0.817522	0.611947	0.056025	-0.868617	0.541364	0.102420	-0.868617	0.376606	0.102420	-0.715332	0.305990	0.085899	-0.664236	0.188286	0.065250	-0.613141	2.353710	0.476515	-4.546811	0.000000	0.000000	23.733835	-4.613010	-2.204960	6.889924	-26.414405	65.938466	34.696491	60.328465	-6.368639	-11.610346	-5.068181	-16.429950	0.924033	35.969267	83.953046	-9.351737	-2.633931
1.500000	2.830216	-4.893387	99.937528	0.210918	0.960714	0.243006	10.603322	2.000919	-19.872747	12.174274	0.212481	28.776801	14.779249	0.000000	9.315677	-1.324163	9.697659	5.200182	0.090760	21.160783	-3.396563	0.000000	0.331862	0.042843	-0.826372	0.616301	0.056981	-0.878021	0.545216	0.104169	-0.878021	0.379285	0.104169	-0.723076	0.308167	0.087365	-0.671428	0.189626	0.066364	-0.619779	2.370458	0.484649	-4.596036	0.000000	0.000000	23.932380	-4.593796	-2.144395	6.989902	-26.508931	66.126841	34.784668	60.756648	-6.494581	-11.776820	-5.150587	-16.328066	0.567236	35.978304	83.748143	-9.049074	-2.035582
1.517857	2.813575	-4.949295	99.975082	0.210751	0.960492	0.243526	10.701424	1.939629	-20.027404	12.248531	0.213777	28.725197	14.798206	0.000000	9.455272	-1.284863	9.584009	5.256319	0.091740	21.217614	-3.185868	0.000000	0.333512	0.042350	-0.842825	0.619366	0.056325	-0.895501	0.547927	0.102969	-0.895501	0.381171	0.102969	-0.737472	0.309699	0.086359	-0.684795	0.190569	0.065600	-0.632119	2.382245	0.479067	-4.687538	0.000000	0.000000	24.145927	-4.539515	-2.059548	7.122403	-26.565386	66.367070	34.813016	61.279035	-6.627901	-11.976154	-5.242416	-16.275546	0.354339	35.896468	83.664150	-8.784706	-1.722161
1.535714	2.790712	-4.977492	100.025002	0.210583	0.960342	0.243927	10.730316	1.885596	-20.231248	12.266140	0.214085	28.663406	14.870849	0.000000	9.552208	-1.238920	9.577474	5.316532	0.092791	21.242571	-3.147873	0.000000	0.333619	0.040980	-0.869462	0.619563	0.054503	-0.923803	0.548102	0.099638	-0.923803	0.381293	0.099638	-0.760779	0.309798	0.083566	-0.706438	0.190630	0.063477	-0.652097	2.383006	0.463570	-4.835687	0.000000	0.000000	24.360747	-4.448979	-1.934301	7.297621	-26.598195	66.681822	34.824210	61.587486	-6.706917	-12.129138	-5.348388	-16.271035	0.311945	35.744789	83.664572	-8.651389	-1.673245
